<?xml version="1.0" encoding="UTF-8" standalone="no"?><!DOCTYPE svg PUBLIC "-//W3C//DTD SVG 1.1//EN" "http://www.w3.org/Graphics/SVG/1.1/DTD/svg11.dtd">
<svg width="100%" height="100%" viewBox="0 0 36.5 22.87" version="1.1" xmlns="http://www.w3.org/2000/svg" xmlns:xlink="http://www.w3.org/1999/xlink" xml:space="preserve" xmlns:serif="http://www.serif.com/" style="fill-rule:evenodd;clip-rule:evenodd;stroke-linejoin:round;stroke-miterlimit:2;"><path d="M4.476,0c-2.472,0 -4.476,2.004 -4.476,4.476c0,2.217 1.614,4.053 3.73,4.409l0,-3.475l-1.08,0l0,-1.25l1.08,0l0,-0.923c0,-1.07 0.653,-1.653 1.607,-1.653c0.458,0 0.851,0.034 0.965,0.05l0,1.118l-0.662,0c-0.519,0 -0.619,0.247 -0.619,0.609l0,0.798l1.238,0l-0.162,1.25l-1.076,0l0,3.506c2.214,-0.27 3.931,-2.153 3.931,-4.44c0,-2.471 -2.004,-4.475 -4.476,-4.475" style="fill:#fff;fill-rule:nonzero;"/><path d="M4.476,13.752c-2.472,0 -4.476,2.004 -4.476,4.476c0,2.217 1.614,4.053 3.73,4.409l0,-3.475l-1.08,0l0,-1.25l1.08,0l0,-0.923c0,-1.07 0.653,-1.653 1.607,-1.653c0.458,0 0.851,0.034 0.965,0.05l0,1.118l-0.662,0c-0.519,0 -0.619,0.247 -0.619,0.609l0,0.798l1.238,0l-0.162,1.25l-1.076,0l0,3.506c2.214,-0.27 3.931,-2.153 3.931,-4.44c0,-2.471 -2.004,-4.475 -4.476,-4.475" style="fill:#dd1f3b;fill-rule:nonzero;"/><g><path d="M19.085,4.476c0,0.473 -0.384,0.857 -0.857,0.857c-0.473,0 -0.857,-0.384 -0.857,-0.857c0,-0.473 0.384,-0.857 0.857,-0.857c0.473,0 0.857,0.384 0.857,0.857" style="fill:#fff;fill-rule:nonzero;"/><path d="M19.6,3.412c-0.17,0 -0.308,-0.138 -0.308,-0.308c0,-0.17 0.138,-0.308 0.308,-0.308c0.17,0 0.308,0.138 0.308,0.308c0,0.17 -0.138,0.308 -0.308,0.308m-1.372,2.384c-0.729,0 -1.32,-0.591 -1.32,-1.32c0,-0.729 0.591,-1.32 1.32,-1.32c0.729,0 1.32,0.591 1.32,1.32c0,0.729 -0.591,1.32 -1.32,1.32m2.004,-2.836c-0.041,-0.112 -0.107,-0.212 -0.193,-0.295c-0.083,-0.086 -0.184,-0.152 -0.295,-0.193c-0.091,-0.035 -0.227,-0.077 -0.477,-0.088c-0.271,-0.013 -0.353,-0.015 -1.039,-0.015c-0.686,0 -0.768,0.002 -1.039,0.015c-0.25,0.011 -0.386,0.053 -0.477,0.088c-0.112,0.041 -0.212,0.107 -0.295,0.193c-0.086,0.083 -0.152,0.183 -0.193,0.295c-0.035,0.091 -0.077,0.227 -0.088,0.477c-0.013,0.271 -0.015,0.353 -0.015,1.039c0,0.686 0.002,0.768 0.015,1.039c0.011,0.25 0.053,0.386 0.088,0.477c0.041,0.112 0.107,0.212 0.193,0.295c0.083,0.086 0.183,0.152 0.295,0.193c0.091,0.035 0.227,0.077 0.477,0.088c0.271,0.013 0.353,0.015 1.039,0.015c0.686,0 0.768,-0.002 1.039,-0.015c0.25,-0.011 0.386,-0.053 0.477,-0.088c0.224,-0.087 0.401,-0.264 0.488,-0.488c0.035,-0.091 0.076,-0.227 0.088,-0.477c0.013,-0.271 0.015,-0.353 0.015,-1.039c0,-0.686 -0.002,-0.768 -0.015,-1.039c-0.011,-0.25 -0.053,-0.386 -0.088,-0.477" style="fill:#fff;fill-rule:nonzero;"/><path d="M20.783,5.536c-0.013,0.273 -0.056,0.46 -0.12,0.624c-0.133,0.345 -0.406,0.618 -0.751,0.751c-0.164,0.064 -0.351,0.107 -0.624,0.12c-0.274,0.012 -0.362,0.015 -1.06,0.015c-0.698,0 -0.785,-0.003 -1.06,-0.015c-0.273,-0.013 -0.46,-0.056 -0.624,-0.12c-0.171,-0.064 -0.326,-0.165 -0.455,-0.296c-0.13,-0.128 -0.232,-0.284 -0.296,-0.455c-0.064,-0.164 -0.107,-0.351 -0.12,-0.624c-0.012,-0.274 -0.015,-0.362 -0.015,-1.06c0,-0.698 0.003,-0.786 0.015,-1.06c0.013,-0.273 0.056,-0.46 0.12,-0.624c0.064,-0.171 0.165,-0.326 0.296,-0.455c0.129,-0.131 0.284,-0.232 0.455,-0.296c0.164,-0.064 0.351,-0.107 0.624,-0.12c0.274,-0.012 0.362,-0.015 1.06,-0.015c0.698,0 0.786,0.003 1.06,0.015c0.273,0.013 0.46,0.056 0.624,0.12c0.171,0.064 0.326,0.165 0.455,0.296c0.131,0.129 0.232,0.284 0.296,0.455c0.064,0.164 0.107,0.351 0.12,0.624c0.012,0.274 0.015,0.362 0.015,1.06c0,0.698 -0.003,0.786 -0.015,1.06m-2.555,-5.536c-2.472,0 -4.476,2.004 -4.476,4.476c0,2.472 2.004,4.476 4.476,4.476c2.472,0 4.476,-2.004 4.476,-4.476c0,-2.472 -2.004,-4.476 -4.476,-4.476" style="fill:#fff;fill-rule:nonzero;"/></g><g><path d="M19.085,18.228c0,0.473 -0.384,0.857 -0.857,0.857c-0.473,0 -0.857,-0.384 -0.857,-0.857c0,-0.473 0.384,-0.857 0.857,-0.857c0.473,0 0.857,0.384 0.857,0.857" style="fill:#dd1f3b;fill-rule:nonzero;"/><path d="M19.6,17.164c-0.17,0 -0.308,-0.138 -0.308,-0.308c0,-0.17 0.138,-0.308 0.308,-0.308c0.17,0 0.308,0.138 0.308,0.308c0,0.17 -0.138,0.308 -0.308,0.308m-1.372,2.384c-0.729,0 -1.32,-0.591 -1.32,-1.32c0,-0.729 0.591,-1.32 1.32,-1.32c0.729,0 1.32,0.591 1.32,1.32c0,0.729 -0.591,1.32 -1.32,1.32m2.004,-2.836c-0.041,-0.112 -0.107,-0.212 -0.193,-0.295c-0.083,-0.086 -0.184,-0.152 -0.295,-0.193c-0.091,-0.035 -0.227,-0.077 -0.477,-0.088c-0.271,-0.013 -0.353,-0.015 -1.039,-0.015c-0.686,0 -0.768,0.002 -1.039,0.015c-0.25,0.011 -0.386,0.053 -0.477,0.088c-0.112,0.041 -0.212,0.107 -0.295,0.193c-0.086,0.083 -0.152,0.183 -0.193,0.295c-0.035,0.091 -0.077,0.227 -0.088,0.477c-0.013,0.271 -0.015,0.353 -0.015,1.039c0,0.686 0.002,0.768 0.015,1.039c0.011,0.25 0.053,0.386 0.088,0.477c0.041,0.112 0.107,0.212 0.193,0.295c0.083,0.086 0.183,0.152 0.295,0.193c0.091,0.035 0.227,0.077 0.477,0.088c0.271,0.013 0.353,0.015 1.039,0.015c0.686,0 0.768,-0.002 1.039,-0.015c0.25,-0.011 0.386,-0.053 0.477,-0.088c0.224,-0.087 0.401,-0.264 0.488,-0.488c0.035,-0.091 0.076,-0.227 0.088,-0.477c0.013,-0.271 0.015,-0.353 0.015,-1.039c0,-0.686 -0.002,-0.768 -0.015,-1.039c-0.011,-0.25 -0.053,-0.386 -0.088,-0.477" style="fill:#dd1f3b;fill-rule:nonzero;"/><path d="M20.783,19.288c-0.013,0.273 -0.056,0.46 -0.12,0.624c-0.133,0.345 -0.406,0.618 -0.751,0.751c-0.164,0.064 -0.351,0.107 -0.624,0.12c-0.274,0.012 -0.362,0.015 -1.06,0.015c-0.698,0 -0.785,-0.003 -1.06,-0.015c-0.273,-0.013 -0.46,-0.056 -0.624,-0.12c-0.171,-0.064 -0.326,-0.165 -0.455,-0.296c-0.13,-0.128 -0.232,-0.284 -0.296,-0.455c-0.064,-0.164 -0.107,-0.351 -0.12,-0.624c-0.012,-0.274 -0.015,-0.362 -0.015,-1.06c0,-0.698 0.003,-0.786 0.015,-1.06c0.013,-0.273 0.056,-0.46 0.12,-0.624c0.064,-0.171 0.165,-0.326 0.296,-0.455c0.129,-0.131 0.284,-0.232 0.455,-0.296c0.164,-0.064 0.351,-0.107 0.624,-0.12c0.274,-0.012 0.362,-0.015 1.06,-0.015c0.698,0 0.786,0.003 1.06,0.015c0.273,0.013 0.46,0.056 0.624,0.12c0.171,0.064 0.326,0.165 0.455,0.296c0.131,0.129 0.232,0.284 0.296,0.455c0.064,0.164 0.107,0.351 0.12,0.624c0.012,0.274 0.015,0.362 0.015,1.06c0,0.698 -0.003,0.786 -0.015,1.06m-2.555,-5.536c-2.472,0 -4.476,2.004 -4.476,4.476c0,2.472 2.004,4.476 4.476,4.476c2.472,0 4.476,-2.004 4.476,-4.476c0,-2.472 -2.004,-4.476 -4.476,-4.476" style="fill:#dd1f3b;fill-rule:nonzero;"/></g><g><path d="M31.345,5.404l1.612,-0.928l-1.612,-0.928l0,1.856Z" style="fill:#fff;fill-rule:nonzero;"/><path d="M34.777,4.481c0,0 0,0.907 -0.115,1.345c-0.064,0.24 -0.254,0.429 -0.493,0.493c-0.438,0.115 -2.189,0.115 -2.189,0.115c0,0 -1.746,0 -2.188,-0.119c-0.24,-0.065 -0.429,-0.254 -0.493,-0.494c-0.116,-0.433 -0.116,-1.345 -0.116,-1.345c0,0 0,-0.908 0.116,-1.345c0.064,-0.24 0.258,-0.433 0.493,-0.498c0.437,-0.115 2.188,-0.115 2.188,-0.115c0,0 1.751,0 2.189,0.119c0.239,0.065 0.429,0.254 0.493,0.494c0.12,0.437 0.115,1.35 0.115,1.35m-2.797,-4.481c-2.471,0 -4.476,2.004 -4.476,4.476c0,2.472 2.005,4.476 4.476,4.476c2.472,0 4.476,-2.004 4.476,-4.476c0,-2.472 -2.004,-4.476 -4.476,-4.476" style="fill:#fff;fill-rule:nonzero;"/></g><g><path d="M31.345,19.156l1.612,-0.928l-1.612,-0.928l0,1.856Z" style="fill:#dd1f3b;fill-rule:nonzero;"/><path d="M34.777,18.233c0,0 0,0.907 -0.115,1.345c-0.064,0.24 -0.254,0.429 -0.493,0.493c-0.438,0.115 -2.189,0.115 -2.189,0.115c0,0 -1.746,0 -2.188,-0.119c-0.24,-0.065 -0.429,-0.254 -0.493,-0.494c-0.116,-0.433 -0.116,-1.345 -0.116,-1.345c0,0 0,-0.908 0.116,-1.345c0.064,-0.24 0.258,-0.433 0.493,-0.498c0.437,-0.115 2.188,-0.115 2.188,-0.115c0,0 1.751,0 2.189,0.119c0.239,0.065 0.429,0.254 0.493,0.494c0.12,0.437 0.115,1.35 0.115,1.35m-2.797,-4.481c-2.471,0 -4.476,2.004 -4.476,4.476c0,2.472 2.005,4.476 4.476,4.476c2.472,0 4.476,-2.004 4.476,-4.476c0,-2.472 -2.004,-4.476 -4.476,-4.476" style="fill:#dd1f3b;fill-rule:nonzero;"/></g></svg>